<?xml version="1.0"?>
<svg xmlns="http://www.w3.org/2000/svg" width="500" height="650">
  <title>Sudoku</title>
  <text x="40" y="40" stroke="red" font-size="35">
            SUDOKU
            </text>
  <text x="40" y="90" stroke="green" font-size="20">La grille est complète</text>
  <text x="40" y="140" stroke="red" font-size="20">La grille contient une ou des erreur(s)</text>
  <rect width="50" height="50" x="10" y="160" style="fill:rgb(255,255,255);stroke-width:3;stroke:black"/>
  <text x="26" y="195" font-size="2em" fill="black">3</text>
  <rect width="50" height="50" x="60" y="160" style="fill:rgb(255,255,255);stroke-width:3;stroke:black"/>
  <text x="76" y="195" font-size="2em" fill="black">3</text>
  <rect width="50" height="50" x="110" y="160" style="fill:rgb(255,255,255);stroke-width:3;stroke:black"/>
  <text x="126" y="195" font-size="2em" fill="black">6</text>
  <rect width="50" height="50" x="160" y="160" style="fill:rgb(255,255,255);stroke-width:3;stroke:black"/>
  <text x="176" y="195" font-size="2em" fill="black">7</text>
  <rect width="50" height="50" x="210" y="160" style="fill:rgb(255,255,255);stroke-width:3;stroke:black"/>
  <text x="226" y="195" font-size="2em" fill="black">8</text>
  <rect width="50" height="50" x="260" y="160" style="fill:rgb(255,255,255);stroke-width:3;stroke:black"/>
  <text x="276" y="195" font-size="2em" fill="black">9</text>
  <rect width="50" height="50" x="310" y="160" style="fill:rgb(255,255,255);stroke-width:3;stroke:black"/>
  <text x="326" y="195" font-size="2em" fill="black">2</text>
  <rect width="50" height="50" x="360" y="160" style="fill:rgb(255,255,255);stroke-width:3;stroke:black"/>
  <text x="376" y="195" font-size="2em" fill="black">1</text>
  <rect width="50" height="50" x="410" y="160" style="fill:rgb(255,255,255);stroke-width:3;stroke:black"/>
  <text x="426" y="195" font-size="2em" fill="black">5</text>
  <rect width="50" height="50" x="10" y="210" style="fill:rgb(255,255,255);stroke-width:3;stroke:black"/>
  <text x="26" y="245" font-size="2em" fill="black">5</text>
  <rect width="50" height="50" x="60" y="210" style="fill:rgb(255,255,255);stroke-width:3;stroke:black"/>
  <text x="76" y="245" font-size="2em" fill="black">8</text>
  <rect width="50" height="50" x="110" y="210" style="fill:rgb(255,255,255);stroke-width:3;stroke:black"/>
  <text x="126" y="245" font-size="2em" fill="black">9</text>
  <rect width="50" height="50" x="160" y="210" style="fill:rgb(255,255,255);stroke-width:3;stroke:black"/>
  <text x="176" y="245" font-size="2em" fill="black">1</text>
  <rect width="50" height="50" x="210" y="210" style="fill:rgb(255,255,255);stroke-width:3;stroke:black"/>
  <text x="226" y="245" font-size="2em" fill="black">2</text>
  <rect width="50" height="50" x="260" y="210" style="fill:rgb(255,255,255);stroke-width:3;stroke:black"/>
  <text x="276" y="245" font-size="2em" fill="black">4</text>
  <rect width="50" height="50" x="310" y="210" style="fill:rgb(255,255,255);stroke-width:3;stroke:black"/>
  <text x="326" y="245" font-size="2em" fill="black">3</text>
  <rect width="50" height="50" x="360" y="210" style="fill:rgb(255,255,255);stroke-width:3;stroke:black"/>
  <text x="376" y="245" font-size="2em" fill="black">6</text>
  <rect width="50" height="50" x="410" y="210" style="fill:rgb(255,255,255);stroke-width:3;stroke:black"/>
  <text x="426" y="245" font-size="2em" fill="black">7</text>
  <rect width="50" height="50" x="10" y="260" style="fill:rgb(255,255,255);stroke-width:3;stroke:black"/>
  <text x="26" y="295" font-size="2em" fill="black">1</text>
  <rect width="50" height="50" x="60" y="260" style="fill:rgb(255,255,255);stroke-width:3;stroke:black"/>
  <text x="76" y="295" font-size="2em" fill="black">2</text>
  <rect width="50" height="50" x="110" y="260" style="fill:rgb(255,255,255);stroke-width:3;stroke:black"/>
  <text x="126" y="295" font-size="2em" fill="black">7</text>
  <rect width="50" height="50" x="160" y="260" style="fill:rgb(255,255,255);stroke-width:3;stroke:black"/>
  <text x="176" y="295" font-size="2em" fill="black">3</text>
  <rect width="50" height="50" x="210" y="260" style="fill:rgb(255,255,255);stroke-width:3;stroke:black"/>
  <text x="226" y="295" font-size="2em" fill="black">5</text>
  <rect width="50" height="50" x="260" y="260" style="fill:rgb(255,255,255);stroke-width:3;stroke:black"/>
  <text x="276" y="295" font-size="2em" fill="black">6</text>
  <rect width="50" height="50" x="310" y="260" style="fill:rgb(255,255,255);stroke-width:3;stroke:black"/>
  <text x="326" y="295" font-size="2em" fill="black">4</text>
  <rect width="50" height="50" x="360" y="260" style="fill:rgb(255,255,255);stroke-width:3;stroke:black"/>
  <text x="376" y="295" font-size="2em" fill="black">8</text>
  <rect width="50" height="50" x="410" y="260" style="fill:rgb(255,255,255);stroke-width:3;stroke:black"/>
  <text x="426" y="295" font-size="2em" fill="black">9</text>
  <rect width="50" height="50" x="10" y="310" style="fill:rgb(255,255,255);stroke-width:3;stroke:black"/>
  <text x="26" y="345" font-size="2em" fill="black">7</text>
  <rect width="50" height="50" x="60" y="310" style="fill:rgb(255,255,255);stroke-width:3;stroke:black"/>
  <text x="76" y="345" font-size="2em" fill="black">5</text>
  <rect width="50" height="50" x="110" y="310" style="fill:rgb(255,255,255);stroke-width:3;stroke:black"/>
  <text x="126" y="345" font-size="2em" fill="black">3</text>
  <rect width="50" height="50" x="160" y="310" style="fill:rgb(255,255,255);stroke-width:3;stroke:black"/>
  <text x="176" y="345" font-size="2em" fill="black">9</text>
  <rect width="50" height="50" x="210" y="310" style="fill:rgb(255,255,255);stroke-width:3;stroke:black"/>
  <text x="226" y="345" font-size="2em" fill="black">6</text>
  <rect width="50" height="50" x="260" y="310" style="fill:rgb(255,255,255);stroke-width:3;stroke:black"/>
  <text x="276" y="345" font-size="2em" fill="black">8</text>
  <rect width="50" height="50" x="310" y="310" style="fill:rgb(255,255,255);stroke-width:3;stroke:black"/>
  <text x="326" y="345" font-size="2em" fill="black">1</text>
  <rect width="50" height="50" x="360" y="310" style="fill:rgb(255,255,255);stroke-width:3;stroke:black"/>
  <text x="376" y="345" font-size="2em" fill="black">4</text>
  <rect width="50" height="50" x="410" y="310" style="fill:rgb(255,255,255);stroke-width:3;stroke:black"/>
  <text x="426" y="345" font-size="2em" fill="black">2</text>
  <rect width="50" height="50" x="10" y="360" style="fill:rgb(255,255,255);stroke-width:3;stroke:black"/>
  <text x="26" y="395" font-size="2em" fill="black">9</text>
  <rect width="50" height="50" x="60" y="360" style="fill:rgb(255,255,255);stroke-width:3;stroke:black"/>
  <text x="76" y="395" font-size="2em" fill="black">6</text>
  <rect width="50" height="50" x="110" y="360" style="fill:rgb(255,255,255);stroke-width:3;stroke:black"/>
  <text x="126" y="395" font-size="2em" fill="black">8</text>
  <rect width="50" height="50" x="160" y="360" style="fill:rgb(255,255,255);stroke-width:3;stroke:black"/>
  <text x="176" y="395" font-size="2em" fill="black">2</text>
  <rect width="50" height="50" x="210" y="360" style="fill:rgb(255,255,255);stroke-width:3;stroke:black"/>
  <text x="226" y="395" font-size="2em" fill="black">4</text>
  <rect width="50" height="50" x="260" y="360" style="fill:rgb(255,255,255);stroke-width:3;stroke:black"/>
  <text x="276" y="395" font-size="2em" fill="black">1</text>
  <rect width="50" height="50" x="310" y="360" style="fill:rgb(255,255,255);stroke-width:3;stroke:black"/>
  <text x="326" y="395" font-size="2em" fill="black">5</text>
  <rect width="50" height="50" x="360" y="360" style="fill:rgb(255,255,255);stroke-width:3;stroke:black"/>
  <text x="376" y="395" font-size="2em" fill="black">7</text>
  <rect width="50" height="50" x="410" y="360" style="fill:rgb(255,255,255);stroke-width:3;stroke:black"/>
  <text x="426" y="395" font-size="2em" fill="black">3</text>
  <rect width="50" height="50" x="10" y="410" style="fill:rgb(255,255,255);stroke-width:3;stroke:black"/>
  <text x="26" y="445" font-size="2em" fill="black">4</text>
  <rect width="50" height="50" x="60" y="410" style="fill:rgb(255,255,255);stroke-width:3;stroke:black"/>
  <text x="76" y="445" font-size="2em" fill="black">1</text>
  <rect width="50" height="50" x="110" y="410" style="fill:rgb(255,255,255);stroke-width:3;stroke:black"/>
  <text x="126" y="445" font-size="2em" fill="black">2</text>
  <rect width="50" height="50" x="160" y="410" style="fill:rgb(255,255,255);stroke-width:3;stroke:black"/>
  <text x="176" y="445" font-size="2em" fill="black">5</text>
  <rect width="50" height="50" x="210" y="410" style="fill:rgb(255,255,255);stroke-width:3;stroke:black"/>
  <text x="226" y="445" font-size="2em" fill="black">7</text>
  <rect width="50" height="50" x="260" y="410" style="fill:rgb(255,255,255);stroke-width:3;stroke:black"/>
  <text x="276" y="445" font-size="2em" fill="black">3</text>
  <rect width="50" height="50" x="310" y="410" style="fill:rgb(255,255,255);stroke-width:3;stroke:black"/>
  <text x="326" y="445" font-size="2em" fill="black">6</text>
  <rect width="50" height="50" x="360" y="410" style="fill:rgb(255,255,255);stroke-width:3;stroke:black"/>
  <text x="376" y="445" font-size="2em" fill="black">9</text>
  <rect width="50" height="50" x="410" y="410" style="fill:rgb(255,255,255);stroke-width:3;stroke:black"/>
  <text x="426" y="445" font-size="2em" fill="black">8</text>
  <rect width="50" height="50" x="10" y="460" style="fill:rgb(255,255,255);stroke-width:3;stroke:black"/>
  <text x="26" y="495" font-size="2em" fill="black">6</text>
  <rect width="50" height="50" x="60" y="460" style="fill:rgb(255,255,255);stroke-width:3;stroke:black"/>
  <text x="76" y="495" font-size="2em" fill="black">3</text>
  <rect width="50" height="50" x="110" y="460" style="fill:rgb(255,255,255);stroke-width:3;stroke:black"/>
  <text x="126" y="495" font-size="2em" fill="black">4</text>
  <rect width="50" height="50" x="160" y="460" style="fill:rgb(255,255,255);stroke-width:3;stroke:black"/>
  <text x="176" y="495" font-size="2em" fill="black">8</text>
  <rect width="50" height="50" x="210" y="460" style="fill:rgb(255,255,255);stroke-width:3;stroke:black"/>
  <text x="226" y="495" font-size="2em" fill="black">9</text>
  <rect width="50" height="50" x="260" y="460" style="fill:rgb(255,255,255);stroke-width:3;stroke:black"/>
  <text x="276" y="495" font-size="2em" fill="black">5</text>
  <rect width="50" height="50" x="310" y="460" style="fill:rgb(255,255,255);stroke-width:3;stroke:black"/>
  <text x="326" y="495" font-size="2em" fill="black">7</text>
  <rect width="50" height="50" x="360" y="460" style="fill:rgb(255,255,255);stroke-width:3;stroke:black"/>
  <text x="376" y="495" font-size="2em" fill="black">2</text>
  <rect width="50" height="50" x="410" y="460" style="fill:rgb(255,255,255);stroke-width:3;stroke:black"/>
  <text x="426" y="495" font-size="2em" fill="black">1</text>
  <rect width="50" height="50" x="10" y="510" style="fill:rgb(255,255,255);stroke-width:3;stroke:black"/>
  <text x="26" y="545" font-size="2em" fill="black">2</text>
  <rect width="50" height="50" x="60" y="510" style="fill:rgb(255,255,255);stroke-width:3;stroke:black"/>
  <text x="76" y="545" font-size="2em" fill="black">9</text>
  <rect width="50" height="50" x="110" y="510" style="fill:rgb(255,255,255);stroke-width:3;stroke:black"/>
  <text x="126" y="545" font-size="2em" fill="black">5</text>
  <rect width="50" height="50" x="160" y="510" style="fill:rgb(255,255,255);stroke-width:3;stroke:black"/>
  <text x="176" y="545" font-size="2em" fill="black">6</text>
  <rect width="50" height="50" x="210" y="510" style="fill:rgb(255,255,255);stroke-width:3;stroke:black"/>
  <text x="226" y="545" font-size="2em" fill="black">1</text>
  <rect width="50" height="50" x="260" y="510" style="fill:rgb(255,255,255);stroke-width:3;stroke:black"/>
  <text x="276" y="545" font-size="2em" fill="black">7</text>
  <rect width="50" height="50" x="310" y="510" style="fill:rgb(255,255,255);stroke-width:3;stroke:black"/>
  <text x="326" y="545" font-size="2em" fill="black">8</text>
  <rect width="50" height="50" x="360" y="510" style="fill:rgb(255,255,255);stroke-width:3;stroke:black"/>
  <text x="376" y="545" font-size="2em" fill="black">3</text>
  <rect width="50" height="50" x="410" y="510" style="fill:rgb(255,255,255);stroke-width:3;stroke:black"/>
  <text x="426" y="545" font-size="2em" fill="black">4</text>
  <rect width="50" height="50" x="10" y="560" style="fill:rgb(255,255,255);stroke-width:3;stroke:black"/>
  <text x="26" y="595" font-size="2em" fill="black">8</text>
  <rect width="50" height="50" x="60" y="560" style="fill:rgb(255,255,255);stroke-width:3;stroke:black"/>
  <text x="76" y="595" font-size="2em" fill="black">7</text>
  <rect width="50" height="50" x="110" y="560" style="fill:rgb(255,255,255);stroke-width:3;stroke:black"/>
  <text x="126" y="595" font-size="2em" fill="black">1</text>
  <rect width="50" height="50" x="160" y="560" style="fill:rgb(255,255,255);stroke-width:3;stroke:black"/>
  <text x="176" y="595" font-size="2em" fill="black">4</text>
  <rect width="50" height="50" x="210" y="560" style="fill:rgb(255,255,255);stroke-width:3;stroke:black"/>
  <text x="226" y="595" font-size="2em" fill="black">3</text>
  <rect width="50" height="50" x="260" y="560" style="fill:rgb(255,255,255);stroke-width:3;stroke:black"/>
  <text x="276" y="595" font-size="2em" fill="black">2</text>
  <rect width="50" height="50" x="310" y="560" style="fill:rgb(255,255,255);stroke-width:3;stroke:black"/>
  <text x="326" y="595" font-size="2em" fill="black">9</text>
  <rect width="50" height="50" x="360" y="560" style="fill:rgb(255,255,255);stroke-width:3;stroke:black"/>
  <text x="376" y="595" font-size="2em" fill="black">5</text>
  <rect width="50" height="50" x="410" y="560" style="fill:rgb(255,255,255);stroke-width:3;stroke:black"/>
  <text x="426" y="595" font-size="2em" fill="black">6</text>
  <line x1="160" y1="160" x2="160" y2="610" style="stroke:black;stroke-width:12"/>
  <line x1="310" y1="160" x2="310" y2="610" style="stroke:black;stroke-width:12"/>
  <line x1="10" y1="310" x2="460" y2="310" style="stroke:black;stroke-width:12"/>
  <line x1="10" y1="460" x2="460" y2="460" style="stroke:black;stroke-width:12"/>
</svg>
